# xmcd
#
# Track frame offsets:
#	150
#	16380
#	33007
#	46490
#	62335
#	80257
#	97319
#	113255
#	131823
#	148834
#	166585
#	180714
#	197883
#	213073
#	231796
#	250831
#	268137
#	284928
#	301932
#	320214
#	335909
#
# Disc length: 4702 seconds
#
# Revision: 2
# Processed by: cddbd v1.5.2PL0 Copyright (c) Steve Scherf et al.
# Submitted via: EasyCDDAExtractor 2010.6.0.0
#
DISCID=36125c15
DTITLE=Various Artist - The Best Dance Album In The World... Ever!
DYEAR=2009
DGENRE=Dance
TTITLE0=DJ Jurgen PTS. Alice Deejay - Better Off Alone
TTITLE1=Baby D - Let Me Be Your Fantasy
TTITLE2=The Outhere Brothers - Boom Boom Boom
TTITLE3=Corona - Rhythm Of The Night
TTITLE4=Real McCoy - Another Night
TTITLE5=Strike - U Sure Do
TTITLE6=The Original - I Luv U Baby
TTITLE7=Shaggy - Boombastic
TTITLE8=Snap! - The Power
TTITLE9=Heaven 17 - Temptation (Brothers In Rhythm Remix)
TTITLE10=Robin S - Show Me Love
TTITLE11=Reel 2 Real feat. The Mad Stuntman - I Like To Move It
TTITLE12=Kenny ''Dope'' PTS. The Bucketheads - The Bomb
TTITLE13=Run DMC - It's Like That
TTITLE14=MC Hammer - U Can't Touch This
TTITLE15=Pato Banton feat. Ali and Robin Campbell - Baby Come Back
TTITLE16=Hot Chocolate - You Sexy Thing (Ben Liebrand Remix)
TTITLE17=Diana Ross - Chain Reaction
TTITLE18=Jermaine Stewart - We Don't Have To Take Our Clothes Off
TTITLE19=Kim Appleby - Don't Worry
TTITLE20=The Spice Girls - Who Do You Think You Are
EXTD=
EXTT0=
EXTT1=
EXTT2=
EXTT3=
EXTT4=
EXTT5=
EXTT6=
EXTT7=
EXTT8=
EXTT9=
EXTT10=
EXTT11=
EXTT12=
EXTT13=
EXTT14=
EXTT15=
EXTT16=
EXTT17=
EXTT18=
EXTT19=
EXTT20=
PLAYORDER=
